<svg width="24" height="24" viewBox="0 0 24 24" fill="none" xmlns="http://www.w3.org/2000/svg">
<path d="M14.125 10.875C13.5727 10.875 13.125 10.4273 13.125 9.875V4C13.125 3.44772 12.6773 3 12.125 3H11.875C11.3227 3 10.875 3.44772 10.875 4V9.875C10.875 10.4273 10.4273 10.875 9.875 10.875H4C3.44772 10.875 3 11.3227 3 11.875V12.125C3 12.6773 3.44772 13.125 4 13.125H9.875C10.4273 13.125 10.875 13.5727 10.875 14.125V20C10.875 20.5523 11.3227 21 11.875 21H12.125C12.6773 21 13.125 20.5523 13.125 20V14.125C13.125 13.5727 13.5727 13.125 14.125 13.125H20C20.5523 13.125 21 12.6773 21 12.125V11.875C21 11.3227 20.5523 10.875 20 10.875H14.125Z" fill="white"/>
</svg>
